<svg width="18" height="18" viewBox="0 0 18 18" fill="none" xmlns="http://www.w3.org/2000/svg">
<path d="M16.9997 7.99968H1.00032C0.448128 7.99968 7.62957e-08 8.44781 7.62957e-08 9C7.62957e-08 9.55219 0.448128 10.0003 1.00032 10.0003H16.9997C17.5519 10.0003 18 9.55219 18 9C18 8.44781 17.5519 7.99968 16.9997 7.99968ZM9.7068 1.70712C10.0977 1.31618 10.0977 0.683375 9.7068 0.292439C9.3168 -0.0975611 8.68306 -0.0975611 8.29306 0.292439L0.292416 8.29308C-0.0975839 8.68308 -0.0975839 9.31682 0.292416 9.70682L8.29306 17.7075C8.68306 18.0975 9.3168 18.0975 9.7068 17.7075C10.0977 17.3165 10.0977 16.6837 9.7068 16.2928L2.41392 8.9999L9.7068 1.70712Z" fill="#566475"/>
</svg>
