<svg width="20" height="22" viewBox="0 0 20 22" fill="none" xmlns="http://www.w3.org/2000/svg">
<path d="M18.3741 1.90033H14.7927V3.14004C14.7927 3.69102 14.3515 4.13224 13.8005 4.13224C13.2495 4.13224 12.8083 3.69102 12.8083 3.14004V1.90033H7.18964V3.14004C7.18964 3.69102 6.74841 4.13224 6.19743 4.13224C5.64645 4.13224 5.20523 3.69102 5.20523 3.14004V1.90033H1.62495C0.743604 1.90033 0 2.61705 0 3.52528V20.2754C0 21.1567 0.716716 21.9003 1.62495 21.9003H18.375C19.2564 21.9003 20 21.1836 20 20.2754V3.52638C20 2.61705 19.2833 1.90036 18.374 1.90036L18.3741 1.90033ZM18.3741 20.2753H1.62506V7.35532H18.3752L18.3741 20.2753Z" fill="#9DADB8"/>
<path d="M6.19764 3.85687C6.58288 3.85687 6.88636 3.55339 6.88636 3.16814V0.688726C6.88636 0.30348 6.58288 0 6.19764 0C5.81239 0 5.50891 0.30348 5.50891 0.688726V3.16814C5.50891 3.5265 5.81239 3.85687 6.19764 3.85687Z" fill="#9DADB8"/>
<path d="M13.8018 3.85687C14.187 3.85687 14.4905 3.55339 14.4905 3.16814V0.688726C14.4905 0.30348 14.187 0 13.8018 0C13.4165 0 13.1131 0.30348 13.1131 0.688726V3.16814C13.0851 3.5265 13.4155 3.85687 13.8018 3.85687Z" fill="#9DADB8"/>
</svg>
