<svg width="16" height="16" viewBox="0 0 16 16" fill="none" xmlns="http://www.w3.org/2000/svg">
<path d="M8.00008 0.0588379C3.62176 0.0588379 0.059021 3.62158 0.059021 7.9999C0.059021 11.3938 2.20012 14.2963 5.20234 15.4305C5.72054 15.6259 6.26476 15.7701 6.82796 15.8538C7.21046 15.9107 7.6021 15.941 8.00076 15.941C8.84522 15.941 9.65802 15.8074 10.4216 15.562C10.6937 15.4748 10.9588 15.3721 11.2182 15.2568C13.9976 14.02 15.9418 11.2329 15.9418 7.99993C15.9411 3.62161 12.379 0.0588702 8.00001 0.0588702L8.00008 0.0588379ZM11.2176 14.4039V4.10182C11.2176 3.88173 11.0397 3.70386 10.8196 3.70386C10.4582 3.70386 10.1327 3.8494 9.85071 4.13627C8.46556 5.54463 8.50563 10.3252 8.51477 10.8652L8.5211 11.2569H10.4217V14.7485C9.66516 15.0213 8.85023 15.1704 8.0009 15.1704C7.58605 15.1704 7.17965 15.1331 6.78379 15.0649L6.45614 9.24875C7.2134 9.04836 7.77239 8.3607 7.77239 7.54085L7.77169 3.9486C7.77169 3.81922 7.66763 3.71515 7.53825 3.71515C7.40887 3.71515 7.3048 3.81992 7.3048 3.9486V6.77946C7.3048 6.9243 7.18738 7.04172 7.04254 7.04172C6.8977 7.04172 6.78028 6.92429 6.78028 6.77946V3.9486C6.78028 3.80656 6.66497 3.69125 6.52294 3.69125C6.38091 3.69125 6.26559 3.80656 6.26559 3.9486V6.77946C6.26559 6.9243 6.14817 7.04172 6.00333 7.04172C5.85849 7.04172 5.74107 6.92429 5.74107 6.77946V3.9486C5.74107 3.80656 5.62576 3.69125 5.48373 3.69125C5.34169 3.69125 5.22638 3.80656 5.22638 3.9486V6.77946C5.22638 6.9243 5.10896 7.04172 4.96412 7.04172C4.81928 7.04172 4.70186 6.92429 4.70186 6.77946L4.70116 3.9486C4.70116 3.81922 4.59639 3.71515 4.46771 3.71515C4.33904 3.71515 4.23427 3.81992 4.23427 3.9486V7.53942C4.23427 8.35926 4.79326 9.04692 5.55052 9.24731L5.24818 14.6192C2.65708 13.5378 0.830437 10.9784 0.830437 8.00009C0.830437 4.04639 4.0465 0.830329 8.0002 0.830329C11.9539 0.830329 15.17 4.04639 15.17 8.00009C15.17 10.7964 13.5591 13.223 11.2177 14.4041L11.2176 14.4039Z" fill="#9DADB8"/>
</svg>
