<svg width="16" height="18" viewBox="0 0 16 18" fill="none" xmlns="http://www.w3.org/2000/svg">
<path d="M12.5998 4.09387L11.7776 5.14955C13.55 6.52783 14.4337 8.76083 14.0848 10.9752C13.8287 12.6008 12.9563 14.0293 11.6258 14.9985C10.2952 15.9663 8.66713 16.3604 7.04144 16.1031C3.68628 15.5746 1.38512 12.415 1.91245 9.05985C2.16852 7.43429 3.04217 6.00581 4.37148 5.0366C5.5326 4.19056 6.92091 3.78512 8.33688 3.86545L7.17953 5.07927L8.03938 5.89896L9.86578 3.9822V3.98345L10.6842 3.12485L9.82687 2.30641L7.91011 0.480015L7.09167 1.33862L8.34064 2.52859C6.64355 2.44826 4.98033 2.94159 3.58698 3.95707C1.96769 5.13577 0.904485 6.87553 0.593198 8.85374C-0.049493 12.9384 2.75097 16.7845 6.83565 17.4272C7.22982 17.49 7.6252 17.5201 8.01686 17.5201C9.58968 17.5201 11.1186 17.0255 12.4154 16.0816C14.0347 14.9029 15.0979 13.1631 15.4092 11.1849C15.8322 8.48864 14.7565 5.77218 12.5999 4.09411L12.5998 4.09387Z" fill="#9DADB8"/>
<path d="M8.73375 13.8434V13.0727C9.64631 12.971 10.535 12.3936 10.535 11.299C10.535 9.81156 9.15175 9.64083 8.14128 9.51657C7.49483 9.44 7.00025 9.34962 7.00025 8.95797C7.00025 8.41319 7.76721 8.35545 8.09736 8.35545C8.58689 8.35545 9.10908 8.58516 9.28733 8.87889L9.3388 8.96424L10.3543 8.49479L10.3041 8.39186C9.92626 7.61864 9.24842 7.39517 8.73504 7.30481V6.62696H7.54632V7.30231C6.44044 7.46549 5.78268 8.07932 5.78268 8.95798C5.78268 10.3902 7.08313 10.5358 8.03209 10.6425C8.87813 10.7417 9.27104 10.9513 9.27104 11.299C9.27104 11.9643 8.34968 12.0158 8.06725 12.0158C7.43838 12.0158 6.83335 11.702 6.6576 11.2853L6.61367 11.1823L5.51155 11.6493L5.55548 11.7522C5.88184 12.5167 6.58604 12.9949 7.54506 13.1092V13.8422L8.73375 13.8434Z" fill="#9DADB8"/>
</svg>
