<svg width="20" height="20" viewBox="0 0 20 20" fill="none" xmlns="http://www.w3.org/2000/svg">
<path d="M0.0217038 19.1963C-0.0941821 19.7446 0.255203 20.0957 0.803486 19.9781L4.33196 19.2223C4.58448 19.1686 4.93906 18.9732 5.12242 18.7899L16.1349 7.77909C16.3183 7.59575 16.3217 7.29827 16.1436 7.11664L12.8832 3.85627C12.7033 3.67812 12.4059 3.68158 12.2225 3.86319L1.20998 14.8757C1.02664 15.0591 0.831188 15.4171 0.777571 15.6679L0.0217038 19.1963Z" fill="#566475"/>
<path d="M19.731 4.18098L17.4479 6.46407C17.268 6.64396 16.974 6.64396 16.7958 6.46407L13.5354 3.20371C13.3555 3.02383 13.3555 2.73152 13.5354 2.55162L15.8185 0.268524C16.1765 -0.0895081 16.7646 -0.0895081 17.1227 0.268524L19.7309 2.8768C20.0907 3.23483 20.0907 3.8229 19.7309 4.18094L19.731 4.18098Z" fill="#566475"/>
</svg>
