<svg width="20" height="20" viewBox="0 0 20 20" fill="none" xmlns="http://www.w3.org/2000/svg">
<path d="M11.5938 0.0625219C6.99256 0.0625219 3.2464 3.80508 3.2464 8.40636C3.2464 10.2364 3.83892 11.9276 4.84015 13.3038L0.448868 17.6987C-0.0648755 18.2124 -0.0648755 19.0412 0.448868 19.5549C0.703868 19.8099 1.03761 19.9375 1.37512 19.9375C1.71264 19.9375 2.04638 19.8099 2.30138 19.5512L6.69266 15.1599C8.06892 16.1612 9.7601 16.7537 11.5901 16.7537C16.1914 16.7537 19.9339 13.0111 19.9339 8.40622C19.9339 3.80134 16.1952 0.0623779 11.5939 0.0623779L11.5938 0.0625219ZM11.5938 14.1287C8.44 14.1287 5.87128 11.5636 5.87128 8.40612C5.87128 5.25228 8.4364 2.6874 11.5938 2.6874C14.7477 2.6874 17.3126 5.25252 17.3126 8.40612C17.3126 11.5636 14.7474 14.1287 11.5938 14.1287Z" fill="#566475"/>
</svg>
